<svg width="490" height="490" xmlns="http://www.w3.org/2000/svg">

 <g>
  <title>background</title>
  <rect fill="none" id="canvas_background" height="402" width="582" y="-1" x="-1"/>
 </g>
 <g>
  <title>Layer 1</title>
  <g id="svg_1">
   <g id="svg_3">
    <g id="svg_4">
     <g id="svg_37">
      <path fill="#26b99a" id="svg_6" d="m444.549988,323.299988l-56,0l0,19l56,0c5.399994,0 9.700012,-4.299988 9.700012,-9.700012s-4.600006,-9.299988 -9.700012,-9.299988z"/>
      <path fill="#26b99a" id="svg_7" d="m455.049988,260.299988l-66.399994,0l0,19l66.399994,0c8.5,0 15.5,7 15.5,15.5c0,5.399994 4.299988,9.700012 9.700012,9.700012c5.399994,0 9.699982,-4.300018 9.699982,-9.700012c-0.299988,-18.899994 -15.799988,-34.5 -34.899994,-34.5z"/>
      <path fill="#26b99a" id="svg_8" d="m388.649994,197.399994l0,19l56,0c5.399994,0 9.699982,-4.300003 9.699982,-9.699997s-4.299988,-9.700012 -9.699982,-9.700012l-56,0l0,0.400009z"/>
      <path fill="#26b99a" id="svg_9" d="m388.649994,165.899994l66.399994,0c19,0 34.600006,-15.5 34.600006,-34.599991c0,-5.400002 -4.300018,-9.700005 -9.700012,-9.700005c-5.399994,0 -9.699982,4.300003 -9.699982,9.700005c0,8.5 -7,15.5 -15.5,15.5l-66.800018,0c0,0.800003 0,1.599991 0,1.899994l0,17.100006l0.700012,0l0,0.099991z"/>
      <path fill="#26b99a" id="svg_10" d="m342.75,45.099998c0,-5.399998 -4.299988,-9.699997 -9.700012,-9.699997c-5.399994,0 -9.699982,4.299999 -9.699982,9.699997l0,59.5l19,0l0,-59.5l0.399994,0z"/>
      <path fill="#26b99a" id="svg_11" d="m279.450012,34.599998c0,-8.499998 7,-15.499998 15.5,-15.499998c5.399994,0 9.700012,-4.3 9.700012,-9.700001s-4.300018,-9.3 -9.700012,-9.3c-19,0 -34.600006,15.5 -34.600006,34.600001l0,69.899998l19,0l0,-70l0.100006,0z"/>
      <path fill="#26b99a" id="svg_12" d="m216.449997,45.099998c0,-5.399998 -4.300003,-9.699997 -9.699997,-9.699997s-9.699997,4.299999 -9.699997,9.699997l0,59.5l19,0l0,-59.5l0.399994,0z"/>
      <path fill="#26b99a" id="svg_13" d="m131.350006,19c8.5,0 15.5,7 15.5,15.5l0,69.900002l19,0l0,-69.800003c0,-18.999998 -15.5,-34.599998 -34.599991,-34.599998c-5.400002,0 -9.700005,4.3 -9.700005,9.7s4.399986,9.3 9.799995,9.3z"/>
      <path fill="#26b99a" id="svg_14" d="m35.75,156.600006c0,5.400009 4.299999,9.699997 9.700001,9.699997l55.600002,0l0,-17.099991c0,-0.800003 0,-1.199997 0,-1.900009l-56.000004,0c-5,-0.400009 -9.299999,3.899994 -9.299999,9.300003z"/>
      <path fill="#26b99a" id="svg_15" d="m19.049999,194.699997c0,-5.399994 -4.299999,-9.699997 -9.699999,-9.699997s-9.3,4.300003 -9.3,9.699997c0,19 15.5,34.600006 34.600002,34.600006l66.400002,0l0,-19l-66.400002,0c-8.600002,-0.100006 -15.600002,-7.100006 -15.600002,-15.600006z"/>
      <path fill="#26b99a" id="svg_16" d="m35.75,282.899994c0,5.399994 4.299999,9.699982 9.700001,9.699982l55.600002,0l0,-19l-56.000004,0c-5,-0.399963 -9.299999,3.800018 -9.299999,9.300018z"/>
      <path fill="#26b99a" id="svg_17" d="m0.05,358.299988c0,5.399994 4.3,9.700012 9.7,9.700012s9.700001,-4.300018 9.700001,-9.700012c0,-8.5 7,-15.5 15.5,-15.5l66.100002,0l0,-19l-66.400002,0c-19.100001,-0.099976 -34.600002,15.400024 -34.600002,34.5z"/>
      <path fill="#26b99a" id="svg_18" d="m146.949997,445.700012c0,5.399994 4.300003,9.700012 9.699997,9.700012s9.700012,-4.300018 9.700012,-9.700012l0,-53.600006l-19,0l0,53.600006l-0.400009,0z"/>
      <path fill="#26b99a" id="svg_19" d="m210.25,455.799988c0,8.200012 -7,14.799988 -15.5,14.799988c-5.399994,0 -9.699997,4.300018 -9.699997,9.700012s4.300003,9.700012 9.699997,9.700012c19,0 34.600006,-15.200012 34.600006,-33.800018l0,-63.699982l-19,0l0,63.299988l-0.100006,0z"/>
      <path fill="#26b99a" id="svg_20" d="m273.25,445.700012c0,5.399994 4.299988,9.700012 9.700012,9.700012c5.399994,0 9.699982,-4.300018 9.699982,-9.700012l0,-53.600006l-19,0l0,53.600006l-0.399994,0z"/>
      <path fill="#26b99a" id="svg_21" d="m358.350006,470.600006c-8.5,0 -15.5,-6.600006 -15.5,-14.799988l0,-63.700012l-19,0l0,63.700012c0,18.699982 15.5,33.799988 34.600006,33.799988c5.399994,0 9.699982,-4.300018 9.699982,-9.699982s-4.399994,-9.300018 -9.799988,-9.300018z"/>
     </g>
    </g>
   </g>
  </g>
  <g id="svg_22"/>
  <g id="svg_23"/>
  <g id="svg_24"/>
  <g id="svg_25"/>
  <g id="svg_26"/>
  <g id="svg_27"/>
  <g id="svg_28"/>
  <g id="svg_29"/>
  <g id="svg_30"/>
  <g id="svg_31"/>
  <g id="svg_32"/>
  <g id="svg_33"/>
  <g id="svg_34"/>
  <g id="svg_35"/>
  <g id="svg_36"/>
  <g id="svg_64">
   <g transform="matrix(5.23884, 0, 0, 5.23884, -164.156, -288.835)" id="svg_42">
    <path id="svg_43" fill="#e9573f" d="m107.807671,72.192513c-0.390991,-0.391006 -1.022995,-0.391006 -1.414001,0l-14,14l-5.292999,5.292999l-19.499992,19.5l-5.207005,5.207001l-14,13.999992c-0.390999,0.390991 -0.390999,1.022995 0,1.414001c0.195,0.194992 0.451,0.292999 0.707001,0.292999s0.512001,-0.098007 0.707001,-0.292999l14,-13.999992l5.206997,-5.207001l19.5,-19.5l5.292999,-5.292999l14,-14c0.391006,-0.391006 0.391006,-1.02301 0,-1.414001z"/>
    <polygon id="svg_44" fill="#7383BF" points="63.10067367553711,116.89951682090759 63.10067367553711,72.89951682090759 55.10067367553711,72.89951682090759 55.10067367553711,114.89951682090759 55.10067367553711,124.89951682090759 65.10067749023438,124.89951682090759 107.10066986083984,124.89951682090759 107.10066986083984,116.89951682090759 "/>
    <g id="svg_45">
     <polygon id="svg_46" fill="#556080" points="63.10067367553711,86.89951682090759 93.10066986083984,86.89951682090759 93.10066986083984,116.89951682090759 101.10066986083984,116.89951682090759 101.10066986083984,88.89951682090759 101.10066986083984,78.89951682090759 91.10066986083984,78.89951682090759 63.10067367553711,78.89951682090759 "/>
     <rect id="svg_47" fill="#556080" height="8" width="6" y="78.89951" x="49.100673"/>
     <rect id="svg_48" fill="#556080" height="6" width="8" y="124.89951" x="93.100673"/>
    </g>
   </g>
   <g transform="matrix(5.23884, 0, 0, 5.23884, -164.156, -288.835)" id="svg_49"/>
   <g transform="matrix(5.23884, 0, 0, 5.23884, -164.156, -288.835)" id="svg_50"/>
   <g transform="matrix(5.23884, 0, 0, 5.23884, -164.156, -288.835)" id="svg_51"/>
   <g transform="matrix(5.23884, 0, 0, 5.23884, -164.156, -288.835)" id="svg_52"/>
   <g transform="matrix(5.23884, 0, 0, 5.23884, -164.156, -288.835)" id="svg_53"/>
   <g transform="matrix(5.23884, 0, 0, 5.23884, -164.156, -288.835)" id="svg_54"/>
   <g transform="matrix(5.23884, 0, 0, 5.23884, -164.156, -288.835)" id="svg_55"/>
   <g transform="matrix(5.23884, 0, 0, 5.23884, -164.156, -288.835)" id="svg_56"/>
   <g transform="matrix(5.23884, 0, 0, 5.23884, -164.156, -288.835)" id="svg_57"/>
   <g transform="matrix(5.23884, 0, 0, 5.23884, -164.156, -288.835)" id="svg_58"/>
   <g transform="matrix(5.23884, 0, 0, 5.23884, -164.156, -288.835)" id="svg_59"/>
   <g transform="matrix(5.23884, 0, 0, 5.23884, -164.156, -288.835)" id="svg_60"/>
   <g transform="matrix(5.23884, 0, 0, 5.23884, -164.156, -288.835)" id="svg_61"/>
   <g transform="matrix(5.23884, 0, 0, 5.23884, -164.156, -288.835)" id="svg_62"/>
   <g transform="matrix(5.23884, 0, 0, 5.23884, -164.156, -288.835)" id="svg_63"/>
  </g>
 </g>
</svg>